# xmcd
#
# Track frame offsets: 
#        182
#        15292
#        26012
#        42147
#        57410
#        71272
#        86832
#        101120
#        116422
#        129597
#        143857
#        161107
#        177645
#        192600
#        205255
#
# Disc length: 2938 seconds
#
# Revision: 0
# Processed by: cddbd v1.5.1PL2 Copyright (c) Steve Scherf et al.
# Submitted via: ExactAudioCopy v0.95b3
#
DISCID=d80b780f
DTITLE=Raul Torres and Florêncio - Som da Terra - Raul Torres and Florênci
DTITLE=o
DYEAR=1996
DGENRE=Sertanejo
TTITLE0=Cavalo Zaino
TTITLE1=Mineirinha
TTITLE2=Chico Mulato
TTITLE3=Cabocla Teresa
TTITLE4=Campo Grande
TTITLE5=Moda Da Mula Preta
TTITLE6=Pingo D'Água
TTITLE7=Do Lado Que O Vento Vai
TTITLE8=Mestre Carreiro
TTITLE9=Que Linda Morena
TTITLE10=Boiada Cuiabana
TTITLE11=Boi Amarelinho
TTITLE12=Minas Gerais
TTITLE13=No Mourão Da Porteira
TTITLE14=Felicidade
EXTD=
EXTT0=
EXTT1=
EXTT2=
EXTT3=
EXTT4=
EXTT5=
EXTT6=
EXTT7=
EXTT8=
EXTT9=
EXTT10=
EXTT11=
EXTT12=
EXTT13=
EXTT14=
PLAYORDER=
